<svg width="60" height="60" viewBox="0 0 60 60" fill="none" xmlns="http://www.w3.org/2000/svg">
<rect width="60" height="60" rx="16" fill="#B69DF7" fill-opacity="0.25"/>
<path opacity="0.5" d="M22.075 13.3333H37.925C39.8565 13.3333 40.8222 13.3333 41.601 13.6044C43.078 14.1183 44.2375 15.312 44.7367 16.8324C45 17.6343 45 18.6284 45 20.6168V43.957C45 45.3873 43.3583 46.1463 42.3198 45.196C41.7097 44.6377 40.7903 44.6377 40.1802 45.196L39.375 45.9328C38.3057 46.9113 36.6943 46.9113 35.625 45.9328C34.5557 44.9543 32.9443 44.9543 31.875 45.9328C30.8057 46.9113 29.1943 46.9113 28.125 45.9328C27.0557 44.9543 25.4443 44.9543 24.375 45.9328C23.3057 46.9113 21.6943 46.9113 20.625 45.9328L19.8198 45.196C19.2097 44.6377 18.2903 44.6377 17.6802 45.196C16.6417 46.1463 15 45.3873 15 43.957V20.6168C15 18.6284 15 17.6343 15.2633 16.8324C15.7625 15.312 16.922 14.1183 18.399 13.6044C19.1779 13.3333 20.1436 13.3333 22.075 13.3333Z" fill="#B69DF7"/>
<path d="M21.6667 21.25C20.9763 21.25 20.4167 21.8097 20.4167 22.5C20.4167 23.1903 20.9763 23.75 21.6667 23.75H22.5C23.1904 23.75 23.75 23.1903 23.75 22.5C23.75 21.8097 23.1904 21.25 22.5 21.25H21.6667Z" fill="white"/>
<path d="M27.5 21.25C26.8097 21.25 26.25 21.8097 26.25 22.5C26.25 23.1903 26.8097 23.75 27.5 23.75H38.3333C39.0237 23.75 39.5833 23.1903 39.5833 22.5C39.5833 21.8097 39.0237 21.25 38.3333 21.25H27.5Z" fill="white"/>
<path d="M21.6667 27.0833C20.9763 27.0833 20.4167 27.643 20.4167 28.3333C20.4167 29.0237 20.9763 29.5833 21.6667 29.5833H22.5C23.1904 29.5833 23.75 29.0237 23.75 28.3333C23.75 27.643 23.1904 27.0833 22.5 27.0833H21.6667Z" fill="white"/>
<path d="M27.5 27.0833C26.8097 27.0833 26.25 27.643 26.25 28.3333C26.25 29.0237 26.8097 29.5833 27.5 29.5833H38.3333C39.0237 29.5833 39.5833 29.0237 39.5833 28.3333C39.5833 27.643 39.0237 27.0833 38.3333 27.0833H27.5Z" fill="white"/>
<path d="M21.6667 32.9167C20.9763 32.9167 20.4167 33.4763 20.4167 34.1667C20.4167 34.857 20.9763 35.4167 21.6667 35.4167H22.5C23.1904 35.4167 23.75 34.857 23.75 34.1667C23.75 33.4763 23.1904 32.9167 22.5 32.9167H21.6667Z" fill="white"/>
<path d="M27.5 32.9167C26.8097 32.9167 26.25 33.4763 26.25 34.1667C26.25 34.857 26.8097 35.4167 27.5 35.4167H38.3333C39.0237 35.4167 39.5833 34.857 39.5833 34.1667C39.5833 33.4763 39.0237 32.9167 38.3333 32.9167H27.5Z" fill="white"/>
</svg>
