<svg width="60" height="60" viewBox="0 0 60 60" fill="none" xmlns="http://www.w3.org/2000/svg">
<rect width="60" height="60" rx="16" fill="#283593" fill-opacity="0.25"/>
<path d="M45.7117 45.015C45.9882 45.015 46.2499 44.8904 46.4241 44.6755C46.5982 44.4606 46.6661 44.1787 46.609 43.9082L46.0314 41.175C46.3604 40.8568 46.5671 40.4126 46.5671 39.9186C46.5671 39.3986 46.3355 38.9374 45.976 38.6169V29.1255L43.6608 30.5582V38.6169C43.3013 38.9374 43.0697 39.3986 43.0697 39.9186C43.0697 40.4126 43.2765 40.8569 43.6054 41.175L43.0278 43.9082C42.9707 44.1788 43.0387 44.4607 43.2127 44.6755C43.3869 44.8903 43.6486 45.015 43.9251 45.015H45.7117ZM46.4964 23.5868L31.4346 14.2631C30.9935 13.9914 30.4962 13.855 29.9989 13.855C29.5017 13.855 29.0041 13.9913 28.5656 14.2631L13.5036 23.5868C13.1014 23.8357 12.8571 24.2752 12.8571 24.7483C12.8571 25.2214 13.1014 25.6611 13.5036 25.9104L28.5656 35.2342C29.004 35.5062 29.5016 35.6423 29.9989 35.6423C30.4961 35.6423 30.9935 35.506 31.4345 35.2342L46.4964 25.9104C46.8986 25.6612 47.1429 25.2214 47.1429 24.7483C47.1429 24.2752 46.8986 23.8355 46.4964 23.5868ZM29.9989 37.9574C29.0606 37.9574 28.1449 37.6968 27.3468 37.2028L18.561 31.7637V41.1293C18.561 43.9012 23.6843 46.145 29.9989 46.145C36.3157 46.145 41.4385 43.9011 41.4385 41.1293V31.7637L32.6532 37.2028C31.855 37.6968 30.9371 37.9574 29.9989 37.9574Z" fill="#283593"/>
</svg>
