<svg width="60" height="60" viewBox="0 0 60 60" fill="none" xmlns="http://www.w3.org/2000/svg">
<rect width="60" height="60" rx="16" fill="#FB8A05" fill-opacity="0.25"/>
<g clip-path="url(#clip0_1_55)">
<path d="M42.2203 23.6499L45.3392 28.1568H41.8126L38.6924 23.6499H34.2308L37.3509 28.1568H33.8231L30.7042 23.6499H26.2426L29.3615 28.1568H25.8348L22.7159 23.6499H18.2543L21.3732 28.1568H17.8453L14.8412 23.8148L45.9202 15.1441L45.5699 13.8904L45.4955 13.6218L45.0109 11.8872C44.702 10.7788 43.7181 10.0513 42.6292 10L40.9361 14.8938L37.5377 15.8423L39.2881 10.7838L34.9913 11.9825L33.2408 17.0411L29.8436 17.9884L31.5941 12.9298L27.2959 14.1285L25.5455 19.1884L22.1483 20.1356L23.8988 15.0781L19.6006 16.2769L17.8513 21.3355L14.4541 22.2827L16.2034 17.2241L14.7569 17.6282C13.3738 18.014 12.5645 19.4483 12.9502 20.8326L13.4348 22.566L13.3335 22.5953L13.7584 24.1163L13.8621 24.087V28.1569V28.3302V47.4001C13.8621 48.8356 15.0266 50.0002 16.4622 50.0002H44.5457C45.9825 50.0002 47.1458 48.8356 47.1458 47.4001V28.3301V28.1567V23.6498L42.2203 23.6499ZM34.6544 39.4507L28.0394 43.3984C27.9918 43.4277 27.932 43.4302 27.8844 43.4009C27.8355 43.374 27.805 43.3227 27.805 43.2654V39.3177V35.3711C27.805 35.3149 27.8355 35.2637 27.8844 35.2344C27.932 35.2075 27.9918 35.2099 28.0394 35.2368L34.6544 39.1845C34.7008 39.2126 34.7288 39.2651 34.7288 39.3176C34.7288 39.3726 34.7008 39.4238 34.6544 39.4507Z" fill="#FB8A05"/>
</g>
<defs>
<clipPath id="clip0_1_55">
<rect width="40" height="40" fill="white" transform="translate(10 10)"/>
</clipPath>
</defs>
</svg>
