<svg width="60" height="60" viewBox="0 0 60 60" fill="none" xmlns="http://www.w3.org/2000/svg">
<rect width="60" height="60" rx="16" fill="#005248" fill-opacity="0.25"/>
<g clip-path="url(#clip0_1_70)">
<path fill-rule="evenodd" clip-rule="evenodd" d="M11.6667 31.6667H28.3333V50H13.3333C12.4129 50 11.6667 49.2538 11.6667 48.3333V31.6667ZM11.6667 28.3333C10.7462 28.3333 10 27.6937 10 26.9048V21.1905C10 19.6125 11.4924 18.3333 13.3333 18.3333H20.5614C20.2014 17.5756 20 16.728 20 15.8333C20 12.6117 22.6117 10 25.8333 10C27.4655 10 28.9412 10.6704 30 11.7509C31.0588 10.6704 32.5345 10 34.1667 10C37.3883 10 40 12.6117 40 15.8333C40 16.728 39.7987 17.5756 39.4387 18.3333H46.6667C48.5077 18.3333 50 19.6125 50 21.1905V26.9048C50 27.6937 49.2538 28.3333 48.3333 28.3333H31.6667V21.6667C31.6667 20.7462 30.9205 20 30 20C29.0795 20 28.3333 20.7462 28.3333 21.6667V28.3333H11.6667ZM48.3333 31.6667V48.3333C48.3333 49.2538 47.5872 50 46.6667 50H31.6667V31.6667H48.3333ZM34.1667 18.3333C35.5473 18.3333 36.6667 17.214 36.6667 15.8333C36.6667 14.4526 35.5473 13.3333 34.1667 13.3333C32.786 13.3333 31.6667 14.4526 31.6667 15.8333C31.6667 17.214 32.786 18.3333 34.1667 18.3333ZM25.8333 18.3333C27.214 18.3333 28.3333 17.214 28.3333 15.8333C28.3333 14.4526 27.214 13.3333 25.8333 13.3333C24.4526 13.3333 23.3333 14.4526 23.3333 15.8333C23.3333 17.214 24.4526 18.3333 25.8333 18.3333Z" fill="#00695C"/>
</g>
<defs>
<clipPath id="clip0_1_70">
<rect width="40" height="40" fill="white" transform="translate(10 10)"/>
</clipPath>
</defs>
</svg>
