<svg width="60" height="60" viewBox="0 0 60 60" fill="none" xmlns="http://www.w3.org/2000/svg">
<rect width="60" height="60" rx="16" fill="#F44336" fill-opacity="0.25"/>
<path d="M44.1375 19.425C42.2585 17.5746 39.7247 16.5412 37.0875 16.55H36.975C34.3567 16.5742 31.8524 17.6244 30 19.475C28.0766 17.6444 25.5178 16.6316 22.8625 16.65C20.8457 16.6754 18.8815 17.2975 17.2178 18.4377C15.5541 19.578 14.2652 21.1854 13.5138 23.0572C12.7624 24.929 12.5821 26.9814 12.9957 28.9555C13.4092 30.9297 14.398 32.7371 15.8375 34.15L16.375 34.6375C16.4266 34.7098 16.4852 34.7768 16.55 34.8375L29.325 47.3375C29.5578 47.5684 29.8721 47.6986 30.2 47.7C30.3654 47.6993 30.529 47.6658 30.6813 47.6014C30.8337 47.5371 30.9717 47.4431 31.0875 47.325L43.5875 34.5375C43.7218 34.3988 43.8242 34.2324 43.8875 34.05L44.2875 33.6625C46.1478 31.7505 47.1761 29.1803 47.148 26.5128C47.1199 23.8454 46.0376 21.2973 44.1375 19.425Z" fill="#F44336"/>
<path d="M46.25 28.9125L32.825 28.75C32.5796 28.7502 32.3398 28.8226 32.1353 28.9582C31.9308 29.0938 31.7707 29.2866 31.675 29.5125L31.25 27.85C31.1978 27.6602 31.1016 27.4855 30.9691 27.3399C30.8365 27.1944 30.6716 27.0822 30.4875 27.0125C30.3007 26.9431 30.0999 26.9193 29.9021 26.9432C29.7042 26.9672 29.5149 27.0381 29.35 27.15L27.775 28.2125L26.025 23.2125C25.9497 22.9967 25.8166 22.8057 25.6403 22.6602C25.464 22.5148 25.2512 22.4204 25.025 22.3875C24.7907 22.3429 24.5484 22.3662 24.3269 22.4548C24.1054 22.5434 23.9139 22.6936 23.775 22.8875L19.4625 28.75L13.75 28.9125C13.5858 28.9174 13.4243 28.9546 13.2745 29.022C13.1247 29.0894 12.9897 29.1856 12.8771 29.3051C12.6497 29.5466 12.5276 29.8685 12.5375 30.2C12.5474 30.5315 12.6887 30.8455 12.9301 31.0729C13.1716 31.3003 13.4935 31.4224 13.825 31.4125L20.1375 31.25C20.3284 31.2447 20.5155 31.1958 20.6845 31.1069C20.8535 31.0181 20.9999 30.8917 21.1125 30.7375L24.4 26.25L25.9 30.5625C25.9631 30.7434 26.0669 30.9074 26.2035 31.0417C26.34 31.1761 26.5056 31.2773 26.6875 31.3375C26.87 31.3989 27.0643 31.4173 27.2551 31.3913C27.4459 31.3653 27.6281 31.2955 27.7875 31.1875L29.2625 30.1875L30.25 33.8125C30.3187 34.0688 30.4672 34.2965 30.6739 34.4628C30.8807 34.6291 31.135 34.7253 31.4 34.7375H31.4625C31.7143 34.7368 31.96 34.66 32.1674 34.5172C32.3749 34.3745 32.5344 34.1724 32.625 33.9375L33.6625 31.25L46.25 31.4125C46.5815 31.4125 46.8995 31.2808 47.1339 31.0464C47.3683 30.812 47.5 30.494 47.5 30.1625C47.5 29.831 47.3683 29.513 47.1339 29.2786C46.8995 29.0442 46.5815 28.9125 46.25 28.9125Z" fill="white"/>
</svg>
