<svg width="60" height="60" viewBox="0 0 60 60" fill="none" xmlns="http://www.w3.org/2000/svg">
<rect width="60" height="60" rx="16" fill="#6A1B9A" fill-opacity="0.25"/>
<path d="M29.5127 24.7295C29.4443 24.8286 29.4098 24.9352 29.4098 25.0491C29.4098 25.1483 29.4402 25.247 29.5052 25.3384C29.5661 25.4297 29.6614 25.4984 29.7866 25.5514V24.5317C29.6729 24.5699 29.5775 24.6382 29.5127 24.7295Z" fill="#6A1B9A"/>
<path d="M30.2208 26.5256V27.6902C30.3691 27.6598 30.4907 27.5836 30.5821 27.4771C30.6775 27.3628 30.7228 27.2409 30.7228 27.0888C30.7228 26.9596 30.685 26.8452 30.6052 26.7465C30.5287 26.6552 30.3995 26.579 30.2208 26.5256Z" fill="#6A1B9A"/>
<path d="M29.9997 21.9568C27.6359 21.9568 25.7126 23.8801 25.7126 26.2441C25.7126 28.608 27.6358 30.5312 29.9997 30.5312C32.3639 30.5312 34.2874 28.608 34.2874 26.2441C34.2874 23.8802 32.3639 21.9568 29.9997 21.9568ZM31.126 27.888C30.9095 28.1316 30.6052 28.2837 30.2208 28.3447V28.9001H29.7866V28.352C29.4483 28.3064 29.1702 28.1846 28.9571 27.9715C28.7441 27.7584 28.6073 27.4618 28.5466 27.0734L29.3184 26.9821C29.3529 27.1421 29.4097 27.2791 29.4977 27.393C29.5848 27.5074 29.6802 27.5909 29.7865 27.6366V26.3962C29.4022 26.2898 29.1167 26.1223 28.9382 25.894C28.7595 25.673 28.6682 25.3991 28.6682 25.0795C28.6682 24.7598 28.7704 24.4859 28.976 24.2654C29.1777 24.0445 29.4482 23.9153 29.7865 23.8848V23.5957H30.2207V23.8848C30.5361 23.9227 30.7877 24.0292 30.9737 24.2045C31.1605 24.3793 31.2781 24.6228 31.3316 24.9198L30.578 25.0112C30.5285 24.7829 30.4108 24.6229 30.2207 24.5394V25.6961C30.6964 25.8254 31.0198 25.9928 31.1948 26.1984C31.366 26.4037 31.4534 26.6626 31.4534 26.9822C31.4534 27.3402 31.3431 27.6445 31.126 27.888Z" fill="#6A1B9A"/>
<path d="M29.9997 40.3744C29.7068 40.3744 29.4685 40.6111 29.4685 40.902C29.4685 41.197 29.7068 41.4372 29.9997 41.4372C30.293 41.4372 30.5315 41.1971 30.5315 40.902C30.5315 40.6111 30.293 40.3744 29.9997 40.3744Z" fill="#6A1B9A"/>
<path d="M31.716 35.3368C31.6673 35.1557 31.5125 35.018 31.3323 34.9859C31.3309 34.9855 31.3296 34.9855 31.3283 34.9852C31.3033 34.981 31.2777 34.9786 31.2518 34.9786H28.7516C28.7488 34.9786 28.7461 34.9789 28.7434 34.979C28.722 34.9792 28.7007 34.9813 28.6797 34.9845C28.6741 34.9854 28.6686 34.9861 28.6631 34.987C28.6408 34.9913 28.6188 34.997 28.5974 35.0043C28.5945 35.0053 28.5916 35.0065 28.5887 35.0076C28.542 35.0247 28.4979 35.0488 28.4584 35.0789C28.4577 35.0795 28.457 35.08 28.4563 35.0805C28.4374 35.0952 28.4198 35.1115 28.4031 35.1287C28.3999 35.132 28.3968 35.1355 28.3938 35.139C28.3813 35.1526 28.3698 35.1671 28.3591 35.1821C28.3514 35.1929 28.3443 35.204 28.3375 35.2155C28.333 35.2231 28.3286 35.2307 28.3245 35.2385C28.2898 35.3051 28.2698 35.3805 28.2698 35.4607V42.0437C28.2698 42.3095 28.4859 42.5257 28.7516 42.5257H31.2519C31.5176 42.5257 31.7336 42.3095 31.7336 42.0437V35.4607C31.7336 35.4209 31.7283 35.3823 31.7191 35.3452C31.7181 35.3423 31.7168 35.3398 31.716 35.3368ZM29.9997 41.9496C29.4242 41.9496 28.9561 41.4797 28.9561 40.902C28.9561 40.3285 29.4242 39.862 29.9997 39.862C30.5756 39.862 31.0441 40.3286 31.0441 40.902C31.044 41.4797 30.5755 41.9496 29.9997 41.9496Z" fill="#6A1B9A"/>
<path d="M30.5734 32.5841C30.5159 32.5894 30.4582 32.5936 30.4002 32.5973C30.3628 32.5997 30.3258 32.6023 30.2882 32.6041C30.2048 32.6079 30.1209 32.6101 30.0372 32.6105C30.0246 32.6105 30.0122 32.6115 29.9997 32.6115C29.9795 32.6115 29.9595 32.6102 29.9395 32.6099C29.8662 32.6091 29.7929 32.6077 29.7197 32.6044C29.6738 32.6023 29.6283 32.5991 29.5827 32.5961C29.5356 32.593 29.4886 32.5895 29.4416 32.5853C29.3861 32.5804 29.3309 32.5748 29.2756 32.5684C29.2496 32.5653 29.2238 32.5619 29.1978 32.5584C29.1304 32.5499 29.063 32.5409 28.9963 32.5303V33.2611V34.4661H31.003V33.2611V32.5303C30.9443 32.5397 30.8851 32.5477 30.8259 32.5554C30.7873 32.5605 30.7488 32.5657 30.7101 32.5702C30.6646 32.5753 30.6191 32.5798 30.5734 32.5841Z" fill="#6A1B9A"/>
<path d="M13.4181 17.4744V35.0141H27.8614C27.9673 34.8038 28.1444 34.6402 28.3565 34.5484C28.3601 34.5468 28.3636 34.545 28.3671 34.5435C28.3904 34.5337 28.4142 34.5255 28.4384 34.5174C28.4466 34.5148 28.4547 34.5116 28.463 34.5092C28.4701 34.5071 28.4767 34.5042 28.4837 34.5022V33.5174H18.1429C18.0013 33.5174 17.8866 33.4027 17.8866 33.2612C17.8866 31.7827 16.6855 30.5798 15.209 30.5798C15.0674 30.5798 14.9527 30.4651 14.9527 30.3235V22.1649C14.9527 22.0234 15.0675 21.9087 15.209 21.9087C16.6855 21.9087 17.8866 20.7091 17.8866 19.2347C17.8866 19.0931 18.0013 18.9784 18.1429 18.9784H41.8605C42.002 18.9784 42.1166 19.0931 42.1166 19.2347C42.1166 20.7091 43.3162 21.9087 44.7909 21.9087C44.9325 21.9087 45.0472 22.0234 45.0472 22.1649V30.3233C45.0472 30.4649 44.9324 30.5795 44.7909 30.5795C43.3162 30.5795 42.1166 31.7824 42.1166 33.261C42.1166 33.4026 42.0019 33.5172 41.8605 33.5172H31.5155V34.5019C31.5188 34.5027 31.5219 34.5041 31.5252 34.5052C31.551 34.5126 31.5762 34.5212 31.6012 34.5306C31.607 34.5327 31.613 34.5348 31.6188 34.537C31.649 34.549 31.6785 34.5625 31.7072 34.5774C31.7078 34.5777 31.7082 34.5779 31.7087 34.5782C31.894 34.6745 32.0448 34.8274 32.1391 35.014H46.582V17.4744H13.4181Z" fill="#6A1B9A"/>
<path d="M44.5348 30.0773V22.4109C42.9814 22.2869 41.7386 21.0441 41.6145 19.4909H18.3889C18.2646 21.0442 17.0203 22.287 15.4652 22.4109V30.0773C17.0205 30.2016 18.2649 31.4475 18.389 33.0048H28.4838V32.4252C26.0902 31.8292 24.2365 29.8558 23.813 27.398C23.812 27.3926 23.811 27.3871 23.8099 27.3816C23.798 27.3113 23.7874 27.2405 23.7778 27.1693C23.7735 27.1377 23.7696 27.1061 23.7657 27.0745C23.7591 27.018 23.7527 26.9616 23.7474 26.9048C23.7426 26.8526 23.739 26.8001 23.7355 26.7476C23.7327 26.7059 23.7293 26.6643 23.7274 26.6223C23.7227 26.5246 23.72 26.4264 23.72 26.3277C23.72 22.8672 26.537 20.0518 29.9997 20.0518C33.4627 20.0518 36.2799 22.8672 36.2799 26.3277C36.2799 26.4264 36.2772 26.5246 36.2725 26.6223C36.2706 26.6643 36.2673 26.7059 36.2644 26.7477C36.2609 26.8002 36.2573 26.8526 36.2525 26.9048C36.2473 26.9616 36.2409 27.018 36.2342 27.0743C36.2304 27.106 36.2264 27.1378 36.2222 27.1694C36.2126 27.2405 36.202 27.3113 36.19 27.3817C36.1891 27.3872 36.188 27.3925 36.1871 27.398C35.7636 29.8558 33.9096 31.8294 31.5156 32.4253V33.0048H41.6145C41.7382 31.4477 42.9813 30.2018 44.5348 30.0773Z" fill="#6A1B9A"/>
<path d="M31.2041 31.9681C31.2048 31.968 31.2055 31.9677 31.206 31.9676C33.5148 31.4774 35.2702 29.6056 35.6776 27.3358C35.6788 27.3287 35.6802 27.3214 35.6814 27.3143C35.6932 27.2468 35.7035 27.1788 35.713 27.1107C35.7167 27.083 35.7202 27.0551 35.7236 27.0273C35.7303 26.9727 35.7365 26.9179 35.7417 26.8628C35.7461 26.8159 35.7493 26.7688 35.7525 26.7216C35.7552 26.6813 35.7586 26.6412 35.7606 26.6007C35.7648 26.5102 35.7675 26.4193 35.7675 26.3278C35.7675 23.1498 33.1801 20.5644 29.9996 20.5644C26.8195 20.5644 24.2324 23.1498 24.2324 26.3278C24.2324 26.4194 24.2351 26.5102 24.2394 26.6008C24.2413 26.6412 24.2446 26.6812 24.2473 26.7213C24.2505 26.7686 24.2538 26.8159 24.2581 26.8628C24.2634 26.9178 24.2695 26.9726 24.2763 27.0271C24.2797 27.0551 24.2831 27.083 24.2869 27.1108C24.2963 27.1788 24.3065 27.2468 24.3184 27.3141C24.3197 27.3215 24.321 27.3288 24.3223 27.336C24.7295 29.6057 26.4848 31.4775 28.7932 31.9677C28.7938 31.9677 28.7944 31.968 28.7948 31.9681C28.7952 31.9682 28.7956 31.9682 28.796 31.9682C29.0766 32.0312 29.3668 32.0709 29.6622 32.0884C29.6731 32.0891 29.684 32.0903 29.695 32.0909C29.796 32.0962 29.8976 32.099 29.9996 32.099C30.1014 32.099 30.2026 32.0962 30.303 32.0909C30.328 32.0895 30.3524 32.0869 30.3773 32.0853C30.4548 32.0802 30.5323 32.0748 30.6086 32.0666C30.6182 32.0656 30.6277 32.0641 30.6373 32.063C30.8299 32.0412 31.0189 32.01 31.2025 31.9684C31.2031 31.9681 31.2037 31.9682 31.2041 31.9681ZM29.9997 31.0437C27.3532 31.0437 25.2002 28.8905 25.2002 26.2441C25.2002 23.5976 27.3533 21.4443 29.9997 21.4443C32.6465 21.4443 34.7999 23.5975 34.7999 26.2441C34.7998 28.8906 32.6465 31.0437 29.9997 31.0437Z" fill="#6A1B9A"/>
</svg>
