<svg width="60" height="60" viewBox="0 0 60 60" fill="none" xmlns="http://www.w3.org/2000/svg">
<rect width="60" height="60" rx="16" fill="black" fill-opacity="0.25"/>
<path d="M31.6667 36.6667H15C14.558 36.6667 14.134 36.8423 13.8215 37.1548C13.5089 37.4674 13.3333 37.8913 13.3333 38.3333C13.3333 38.7754 13.5089 39.1993 13.8215 39.5118C14.134 39.8244 14.558 40 15 40H31.6667C32.1087 40 32.5326 39.8244 32.8452 39.5118C33.1577 39.1993 33.3333 38.7754 33.3333 38.3333C33.3333 37.8913 33.1577 37.4674 32.8452 37.1548C32.5326 36.8423 32.1087 36.6667 31.6667 36.6667ZM15 23.3333H45C45.442 23.3333 45.866 23.1577 46.1785 22.8452C46.4911 22.5326 46.6667 22.1087 46.6667 21.6667C46.6667 21.2246 46.4911 20.8007 46.1785 20.4882C45.866 20.1756 45.442 20 45 20H15C14.558 20 14.134 20.1756 13.8215 20.4882C13.5089 20.8007 13.3333 21.2246 13.3333 21.6667C13.3333 22.1087 13.5089 22.5326 13.8215 22.8452C14.134 23.1577 14.558 23.3333 15 23.3333ZM45 28.3333H15C14.558 28.3333 14.134 28.5089 13.8215 28.8215C13.5089 29.134 13.3333 29.558 13.3333 30C13.3333 30.442 13.5089 30.866 13.8215 31.1785C14.134 31.4911 14.558 31.6667 15 31.6667H45C45.442 31.6667 45.866 31.4911 46.1785 31.1785C46.4911 30.866 46.6667 30.442 46.6667 30C46.6667 29.558 46.4911 29.134 46.1785 28.8215C45.866 28.5089 45.442 28.3333 45 28.3333Z" fill="white"/>
</svg>
