<svg width="60" height="60" viewBox="0 0 60 60" fill="none" xmlns="http://www.w3.org/2000/svg">
<rect width="60" height="60" rx="16" fill="#607D8B" fill-opacity="0.25"/>
<g clip-path="url(#clip0_1_256)">
<path d="M38.5154 25.2229C38.5154 24.4291 37.8698 23.7833 37.0761 23.7833C36.4094 23.7833 35.6665 24.2476 35.6665 24.9141L35.6673 29.6689C35.6673 29.8929 35.4828 30.1534 35.2448 30.1534C35.0139 30.1534 34.8259 29.9653 34.8259 29.7341V21.6241C34.8259 20.8304 34.1814 20.1847 33.3891 20.1847C32.7007 20.1847 31.9638 20.6688 31.9638 21.3896L31.964 29.57C31.964 29.8047 31.7734 29.996 31.5393 29.9964C31.3035 29.996 31.1122 29.8047 31.1122 29.57L31.1107 18.6818C31.1107 18.2972 30.9609 17.936 30.6893 17.6646C30.4173 17.3921 30.056 17.2421 29.6715 17.2421C28.8905 17.2421 28.2453 17.8788 28.2331 18.6613L28.2329 29.5091C28.2329 29.6232 28.188 29.7312 28.1065 29.8131C28.0261 29.8941 27.9182 29.9386 27.8028 29.9386C27.5652 29.9386 27.372 29.7456 27.372 29.5087L27.3772 23.6119C27.3781 22.5496 27.3787 21.7116 27.3786 21.5935V21.5776C27.3766 20.8224 26.6372 20.3544 25.9532 20.3541C25.1596 20.3544 24.5141 21.0001 24.5141 21.7936V33.6874C24.5141 33.8791 24.3466 34.086 24.076 34.086C23.8722 34.086 23.6527 33.9696 23.4236 33.74L22.0201 32.3372C21.6886 32.0056 21.2666 31.8231 20.8316 31.8231C20.4299 31.8231 20.0624 31.9779 19.7686 32.2709C19.1594 32.8804 19.1413 33.8252 19.7224 34.6779L19.7321 34.6925C19.776 34.7645 20.8279 36.4735 22.7116 38.1522C24.4726 39.7229 27.3474 41.5952 31.0434 41.5952C37.5494 41.5952 38.5208 37.3868 38.5208 34.8781L38.5154 25.2229Z" fill="#607D8B"/>
<path d="M44.1427 15.8574C40.3651 12.0801 35.3421 10 30 10C24.6579 10 19.6348 12.0801 15.8574 15.8574C12.08 19.6347 10 24.6579 10 30C10 35.3421 12.0801 40.3651 15.8574 44.1427C19.6348 47.9198 24.6579 50 30 50C35.3421 50 40.3651 47.9198 44.1427 44.1427C47.9198 40.3651 50 35.3421 50 30C50 24.6579 47.9198 19.6348 44.1427 15.8574ZM30 47.6094C20.2905 47.6094 12.3906 39.7096 12.3906 30C12.3906 20.2905 20.2905 12.3906 30 12.3906C39.7095 12.3906 47.6094 20.2905 47.6094 30C47.6094 39.7095 39.7095 47.6094 30 47.6094Z" fill="#607D8B"/>
</g>
<defs>
<clipPath id="clip0_1_256">
<rect width="40" height="40" fill="white" transform="translate(10 10)"/>
</clipPath>
</defs>
</svg>
