<svg width="60" height="60" viewBox="0 0 60 60" fill="none" xmlns="http://www.w3.org/2000/svg">
<rect width="60" height="60" rx="16" fill="#38434F" fill-opacity="0.25"/>
<path d="M45.1952 22.1425H43.4642V32.8576H45.1952C46.3698 32.8576 47.3212 31.9056 47.3212 30.7316V24.2691C47.3212 23.0945 46.3698 22.1425 45.1952 22.1425Z" fill="#9DB3C7"/>
<path d="M44.2845 10H41.9641H15.7155C14.0381 10 12.6787 11.3599 12.6787 13.0367V46.9627C12.6787 48.6402 14.038 50 15.7155 50H38.9269C40.6043 50 41.9641 48.6402 41.9641 46.9627V20.7145H45.1951C46.3698 20.7145 47.3212 19.763 47.3212 18.589V13.0367C47.3212 11.3599 45.9613 10 44.2845 10ZM22.6477 26.1787C22.6477 23.3763 24.9189 21.1047 27.7218 21.1047C30.5236 21.1047 32.7948 23.3764 32.7948 26.1787V27.3941C32.7948 30.1959 30.5236 32.467 27.7218 32.467C24.9189 32.467 22.6477 30.1959 22.6477 27.3941V26.1787ZM33.9254 40.4551C32.2842 40.4551 27.7219 40.4551 27.7219 40.4551C27.7219 40.4551 23.1584 40.4551 21.5173 40.4551C19.8762 40.4551 19.1323 38.0684 20.0815 36.3821C20.7963 35.1104 21.9676 33.6701 23.8755 32.8509C24.9664 33.6138 26.2917 34.063 27.7219 34.063C29.1504 34.063 30.4762 33.6138 31.5672 32.8509C33.4745 33.6701 34.6464 35.1103 35.3617 36.3821C36.3104 38.0684 35.5665 40.4551 33.9254 40.4551Z" fill="#9DB3C7"/>
</svg>
