<svg width="60" height="60" viewBox="0 0 60 60" fill="none" xmlns="http://www.w3.org/2000/svg">
<rect width="60" height="60" rx="16" fill="#2E7D32" fill-opacity="0.25"/>
<g clip-path="url(#clip0_1_104)">
<path d="M19.4517 17.095C25.9983 11.73 35.6733 12.1033 41.785 18.215C48.2933 24.7233 48.2933 35.2767 41.785 41.785C35.2767 48.2933 24.7233 48.2933 18.215 41.785C16.2177 39.7904 14.7601 37.321 13.9791 34.6085C13.1981 31.8961 13.1192 29.0296 13.75 26.2783L13.8783 25.7567L17.1017 26.6067C16.3026 29.6438 16.6012 32.8655 17.9448 35.704C19.2884 38.5425 21.5909 40.8156 24.4464 42.1228C27.3019 43.43 30.5271 43.6872 33.5538 42.8493C36.5804 42.0114 39.2141 40.132 40.9907 37.5424C42.7674 34.9528 43.5729 31.8191 43.2654 28.6938C42.9579 25.5684 41.5571 22.6519 39.3098 20.4582C37.0625 18.2645 34.113 16.9344 30.9811 16.7024C27.8492 16.4704 24.736 17.3514 22.19 19.19L21.8217 19.4667L23.5167 21.1617L15.8567 22.9283L17.6233 15.2683L19.4517 17.095ZM31.6667 20V23.3333H35.8333V26.6667H26.6667C26.4584 26.6663 26.2576 26.7439 26.1037 26.8842C25.9498 27.0245 25.854 27.2173 25.8352 27.4247C25.8164 27.6321 25.8759 27.839 26.002 28.0047C26.1282 28.1704 26.3118 28.2829 26.5167 28.32L26.6667 28.3333H33.3333C34.4384 28.3333 35.4982 28.7723 36.2796 29.5537C37.061 30.3351 37.5 31.3949 37.5 32.5C37.5 33.6051 37.061 34.6649 36.2796 35.4463C35.4982 36.2277 34.4384 36.6667 33.3333 36.6667H31.6667V40H28.3333V36.6667H24.1667V33.3333H33.3333C33.5416 33.3337 33.7424 33.2561 33.8963 33.1158C34.0502 32.9755 34.146 32.7827 34.1648 32.5753C34.1836 32.3679 34.1241 32.161 33.998 31.9953C33.8718 31.8296 33.6882 31.7171 33.4833 31.68L33.3333 31.6667H26.6667C25.5616 31.6667 24.5018 31.2277 23.7204 30.4463C22.939 29.6649 22.5 28.6051 22.5 27.5C22.5 26.3949 22.939 25.3351 23.7204 24.5537C24.5018 23.7723 25.5616 23.3333 26.6667 23.3333H28.3333V20H31.6667Z" fill="#1DAA23"/>
</g>
<defs>
<clipPath id="clip0_1_104">
<rect width="40" height="40" fill="white" transform="translate(10 10)"/>
</clipPath>
</defs>
</svg>
