<svg width="60" height="60" viewBox="0 0 60 60" fill="none" xmlns="http://www.w3.org/2000/svg">
<rect width="60" height="60" rx="16" fill="#673AB7" fill-opacity="0.25"/>
<path d="M39.8875 20.1125C39.513 20.0373 39.132 19.9996 38.75 20H23.75C23.4185 20 23.1005 19.8683 22.8661 19.6339C22.6317 19.3995 22.5 19.0815 22.5 18.75C22.5 18.4185 22.6317 18.1005 22.8661 17.8661C23.1005 17.6317 23.4185 17.5 23.75 17.5H38.75C38.1678 16.7238 37.4129 16.0938 36.5451 15.6598C35.6772 15.2259 34.7203 15 33.75 15H21.25C20.2797 15 19.3228 15.2259 18.4549 15.6598C17.5871 16.0938 16.8322 16.7238 16.25 17.5C15.4337 18.5793 14.9945 19.8968 15 21.25V38.75C15 40.4076 15.6585 41.9973 16.8306 43.1694C18.0027 44.3415 19.5924 45 21.25 45H38.75C40.4076 45 41.9973 44.3415 43.1694 43.1694C44.3415 41.9973 45 40.4076 45 38.75V26.25C44.9981 24.7911 44.4859 23.3789 43.5522 22.2579C42.6185 21.137 41.322 20.378 39.8875 20.1125ZM36.55 36.25C36.4504 36.262 36.3496 36.262 36.25 36.25C35.2554 36.25 34.3016 35.8549 33.5984 35.1517C32.8951 34.4484 32.5 33.4946 32.5 32.5C32.5 31.5054 32.8951 30.5516 33.5984 29.8483C34.3016 29.1451 35.2554 28.75 36.25 28.75C36.677 28.7473 37.1008 28.8236 37.5 28.975C38.2967 29.27 38.9695 29.8268 39.4084 30.5542C39.8473 31.2816 40.0262 32.1365 39.9159 32.9788C39.8055 33.8211 39.4124 34.601 38.8009 35.1908C38.1894 35.7805 37.3958 36.1452 36.55 36.225V36.25Z" fill="#673AB7"/>
<path d="M36.25 33.75C36.9404 33.75 37.5 33.1904 37.5 32.5C37.5 31.8096 36.9404 31.25 36.25 31.25C35.5596 31.25 35 31.8096 35 32.5C35 33.1904 35.5596 33.75 36.25 33.75Z" fill="#673AB7"/>
</svg>
