<svg width="60" height="60" viewBox="0 0 60 60" fill="none" xmlns="http://www.w3.org/2000/svg">
<rect width="60" height="60" rx="16" fill="#426D25" fill-opacity="0.25"/>
<g clip-path="url(#clip0_1_129)">
<path d="M43.0478 21.1108L42.5791 21.5735C41.8673 22.2913 40.6927 22.2913 39.9749 21.5735L38.4207 20.0194C37.703 19.3016 37.703 18.1329 38.4207 17.4151L40.7342 15.1016C40.7877 15.1135 40.847 15.1193 40.9063 15.1254C40.6215 16.0091 40.4613 16.8931 40.4436 17.6998C40.2716 17.7711 40.1055 17.8719 39.9691 18.0143C39.4115 18.5719 39.4115 19.4736 39.9691 20.0312C40.3013 20.3693 40.7699 20.4998 41.2029 20.4287C41.4223 20.6777 41.6775 20.8677 41.9741 20.9922C42.2113 21.087 42.4664 21.1345 42.7274 21.1345C42.8342 21.1345 42.9409 21.1286 43.0478 21.1108Z" fill="#F8F1C3"/>
<path d="M37.4881 20.9534L39.0445 22.5097C39.7605 23.2258 40.9323 23.2258 41.6484 22.5097L43.046 21.112L42.5819 21.5762C41.8658 22.2923 40.6941 22.2923 39.978 21.5762L38.4216 20.0198C37.7056 19.3038 37.7055 18.1321 38.4216 17.416L37.4881 18.3494C36.772 19.0655 36.772 20.2373 37.4881 20.9534Z" fill="#F8F1C3"/>
<path d="M47.1824 16.7862C46.6248 18.1566 45.8477 19.3016 44.9995 20.0727C44.9638 19.7939 44.9283 19.527 44.8927 19.266C44.8689 19.0762 44.8452 18.8863 44.8215 18.7084C45.3138 18.1152 45.7944 17.3381 46.1799 16.383C47.2417 13.7729 46.9333 11.5305 45.9841 11.1451C45.8833 11.1035 45.7647 11.0798 45.6401 11.0798C44.6909 11.0798 43.1605 12.367 42.1876 14.7516C42.1164 14.9296 42.0511 15.1017 41.9918 15.2737C41.6537 15.2262 41.2918 15.1788 40.9062 15.1255C40.9893 14.8644 41.0842 14.6034 41.1851 14.3484C42.2291 11.7855 44.0621 10 45.6401 10C45.7646 10 45.8892 10.0119 46.002 10.0297C46.1384 10.0534 46.2689 10.0889 46.3934 10.1423C47.0163 10.3973 47.473 10.9551 47.7163 11.744C47.8113 12.0466 47.8765 12.3906 47.9062 12.7584C48.007 13.9685 47.7519 15.3983 47.1824 16.7862Z" fill="#8B8774"/>
<path d="M42.1427 19.8399C41.8159 19.5598 41.6011 19.0127 41.5407 18.2844C41.5253 18.0989 41.5205 17.9063 41.525 17.7084C41.1804 17.5643 40.7907 17.5613 40.4443 17.6998C40.4393 17.9307 40.4453 18.156 40.4634 18.3738C40.536 19.2501 40.7926 19.9516 41.205 20.43C41.4896 20.3836 41.7629 20.251 41.9823 20.0316C42.0424 19.9714 42.0956 19.9071 42.1427 19.8399Z" fill="#937D6B"/>
<path d="M44.8933 19.2647C44.868 19.0737 44.8431 18.8875 44.8189 18.7064C44.575 16.8852 44.3917 15.606 44.3917 15.606C44.3917 15.606 43.433 15.4687 41.9941 15.2736C41.7033 16.1172 41.5423 16.953 41.525 17.7084C41.6913 17.778 41.847 17.8801 41.9823 18.0154C42.479 18.512 42.5322 19.2839 42.1427 19.8399C42.0955 19.9071 42.0424 19.9714 41.9823 20.0314C41.7629 20.2509 41.4896 20.3834 41.205 20.4298C41.4209 20.6802 41.6795 20.8695 41.9769 20.9905C42.213 21.0867 42.4665 21.1355 42.7303 21.1355C42.8345 21.1355 42.9398 21.1272 43.0459 21.112L44.8933 19.2647Z" fill="#ECE5BB"/>
<path d="M41.5251 17.7084C41.5424 16.953 41.7034 16.1172 41.9942 15.2736C41.6552 15.2276 41.2896 15.1784 40.9034 15.1271C40.6187 16.0114 40.4619 16.8911 40.4445 17.6998C40.7908 17.5613 41.1804 17.5642 41.5251 17.7084Z" fill="#937D6B"/>
<path d="M45.9309 31.0055L27.8618 49.0746C26.9957 49.9407 25.744 50.2016 24.6466 49.8457C24.1839 49.6974 23.7449 49.4423 23.3772 49.0746L10.9198 36.6173C10.5579 36.2494 10.3029 35.8164 10.1546 35.3537C9.79864 34.2621 10.0597 33.0046 10.9198 32.1385L28.9889 14.0695C29.3863 13.6719 36.3031 14.5203 40.7343 15.1016L38.4208 17.4151L37.4895 18.3524C36.7717 19.0642 36.7717 20.2388 37.4895 20.9506L39.0437 22.5109C39.7614 23.2286 40.9301 23.2286 41.6479 22.5109L43.0479 21.1109L44.8927 19.2661C44.9283 19.527 44.9639 19.794 44.9995 20.0727C45.575 24.4861 46.3046 30.6317 45.9309 31.0055Z" fill="#558B2F"/>
<path d="M25.3168 37.7087C25.2278 37.4537 25.0795 37.2162 24.86 36.9969C24.6524 36.7894 24.4448 36.6349 24.2312 36.5282C24.0117 36.4274 23.7863 36.3799 23.5549 36.3918C23.3592 36.3918 23.1694 36.4334 22.9795 36.5104C22.7897 36.5935 22.5762 36.724 22.3388 36.902L21.7159 37.3588C21.6032 37.4418 21.5024 37.5012 21.4074 37.5366C21.3125 37.5723 21.2176 37.596 21.1286 37.596C21.0337 37.596 20.9506 37.5782 20.8795 37.5427C20.8023 37.5071 20.737 37.4596 20.6777 37.4002C20.5235 37.2462 20.4405 37.0562 20.4405 36.8308C20.4405 36.6055 20.5591 36.374 20.7964 36.1368C20.9447 35.9885 21.1227 35.852 21.3244 35.7216C21.526 35.5911 21.7634 35.5258 22.0362 35.5198L22.0421 34.4105C21.6566 34.4166 21.3066 34.4936 20.998 34.6478C20.6837 34.7961 20.3692 35.0274 20.0548 35.3418C19.8116 35.591 19.6218 35.8461 19.4973 36.107C19.3727 36.368 19.3015 36.6291 19.2838 36.8841C19.2719 37.1391 19.3074 37.3883 19.4023 37.6256C19.4973 37.8688 19.6515 38.0884 19.8532 38.2899C20.2388 38.6756 20.6422 38.8655 21.0634 38.8536C21.265 38.8536 21.4667 38.812 21.6684 38.7291C21.8642 38.6519 22.0837 38.5273 22.3151 38.3552L22.938 37.8984C23.0684 37.7977 23.1752 37.7323 23.2523 37.6967C23.3295 37.6672 23.4066 37.6494 23.4955 37.6434C23.6854 37.6434 23.8574 37.7205 24.0116 37.8748C24.1955 38.0587 24.2667 38.2662 24.2311 38.4977C24.1896 38.7348 24.0353 38.9841 23.7743 39.251C23.5667 39.4587 23.3413 39.6247 23.098 39.7553C22.8548 39.8917 22.5938 39.957 22.3031 39.957V41.0959C22.748 41.102 23.1514 41.0129 23.5073 40.8289C23.8573 40.6509 24.2073 40.384 24.5513 40.0459C24.7886 39.8087 24.9784 39.5536 25.1268 39.2867C25.2691 39.0197 25.3581 38.7527 25.3937 38.4859C25.4236 38.2189 25.3998 37.9577 25.3168 37.7087Z" fill="#FDFEFE"/>
<path d="M24.3439 31.1301L23.6498 31.8241L26.5269 37.9934L27.4463 37.074L26.9243 36.0002L28.5259 34.3927L29.5937 34.9265L30.5191 34.001L24.3439 31.1301ZM26.4261 35.0097L25.3524 32.7909L27.5532 33.8825L26.4261 35.0097Z" fill="#FDFEFE"/>
<path d="M33.2243 29.7241L31.1718 31.7766L27.4346 28.0395L26.5507 28.9233L31.0769 33.4436L34.0073 30.5132L33.2243 29.7241Z" fill="#FDFEFE"/>
<path d="M36.9199 26.0284L34.82 28.1225L33.7226 27.025L35.5081 25.2395L34.7191 24.4505L32.9336 26.2361L31.8777 25.1742L33.9717 23.0802L33.1828 22.2912L30.2049 25.2691L34.7252 29.7953L37.703 26.8115L36.9199 26.0284Z" fill="#FDFEFE"/>
<path opacity="0.06" d="M43.0477 21.092L43.0359 21.1098L44.8808 19.2648L43.0477 21.092ZM43.03 21.1098V21.1157H43.0359V21.1098H43.03ZM43.0241 21.1157L42.5673 21.5725V21.5784L43.03 21.1157H43.0241ZM43.0241 21.1157L42.5673 21.5725V21.5784L43.03 21.1157H43.0241ZM47.9061 12.7396C47.8765 12.3719 47.8112 12.0278 47.7162 11.7252C47.6747 11.5948 47.6213 11.488 47.5739 11.3694L46.7197 12.2236C46.9629 13.2023 46.8443 14.715 46.168 16.382C46.0257 16.732 45.8714 17.0581 45.7112 17.3548C45.7053 17.3726 45.6934 17.3845 45.6934 17.3963C45.64 17.4912 45.5866 17.5802 45.5392 17.6633C45.474 17.7702 45.4146 17.865 45.3553 17.9599C45.2663 18.0963 45.1773 18.2209 45.0884 18.3455C45.0469 18.4048 44.9994 18.4642 44.952 18.5234C44.9104 18.5769 44.8689 18.6363 44.8214 18.6895C44.8333 18.7548 44.8392 18.82 44.8452 18.8913C44.8333 18.8259 44.8214 18.7608 44.8155 18.6955C44.8155 18.7014 44.8155 18.7014 44.8095 18.7073C44.5604 16.8862 44.3824 15.6048 44.3824 15.6048C44.3824 15.6048 44.0443 15.5573 43.4689 15.4744L40.4613 18.4819C40.4732 18.5828 40.485 18.6836 40.5028 18.7845C40.5206 18.8794 40.5384 18.9742 40.5562 19.0693C40.5799 19.1641 40.6037 19.2532 40.6274 19.3362C40.6512 19.4251 40.6808 19.5082 40.7105 19.5912C40.7402 19.6743 40.7758 19.7513 40.8113 19.8284C40.847 19.8996 40.8825 19.9766 40.9241 20.042C40.9952 20.1724 41.0723 20.2852 41.1613 20.392C41.1673 20.4039 41.1732 20.4158 41.1851 20.4277C40.9774 20.4631 40.758 20.4513 40.5562 20.3861C40.3368 20.3208 40.1291 20.2022 39.9572 20.0301C39.7673 19.8402 39.6368 19.6089 39.5834 19.3598L38.6698 20.2794H38.6639L37.7326 21.2106L32.8148 26.1284L31.9309 27.0123L29.1666 29.7827L28.2827 30.6606L26.7107 32.2326L25.8862 33.057L25.6074 33.3358L24.7473 34.196L21.4194 37.5238L20.2982 38.6451L16.6322 42.311L23.377 49.0557C23.7448 49.4236 24.1837 49.6786 24.6464 49.8269C25.7438 50.1829 26.9955 49.9217 27.8616 49.0557L45.9188 31.0045L45.9306 30.9866C45.9425 30.9748 45.9603 30.9452 45.9663 30.9155C45.9722 30.8918 45.978 30.868 45.984 30.8384C45.9899 30.8027 45.9959 30.7613 46.0018 30.7198C46.162 29.4326 45.5154 24.0343 44.9993 20.0598V20.0539C45.0527 20.0064 45.1061 19.9591 45.1595 19.9056C45.2129 19.8581 45.2603 19.7989 45.3137 19.7455C46.0374 18.998 46.6899 17.9777 47.1704 16.7854C47.1763 16.7795 47.1823 16.7735 47.1823 16.7676C47.7519 15.3793 48.007 13.9498 47.9061 12.7396ZM41.9681 18.0192C42.4664 18.5116 42.5198 19.2827 42.1283 19.8402C41.802 19.5614 41.5885 19.0158 41.5291 18.2861C41.5113 18.1022 41.5113 17.9065 41.5113 17.7107C41.6774 17.7759 41.8377 17.8828 41.9681 18.0192ZM42.502 21.6436L41.6478 22.492L42.4309 21.703L42.4427 21.6911L42.5673 21.5725L42.5791 21.5547L43.0241 21.1157L42.5673 21.5725V21.5784L42.502 21.6436ZM43.0241 21.1157L42.5673 21.5725V21.5784L43.03 21.1157H43.0241ZM43.03 21.1098V21.1157H43.0359V21.1098H43.03Z" fill="#040000"/>
</g>
<defs>
<clipPath id="clip0_1_129">
<rect width="40" height="40" fill="white" transform="translate(10 10)"/>
</clipPath>
</defs>
</svg>
