<svg width="60" height="60" viewBox="0 0 60 60" fill="none" xmlns="http://www.w3.org/2000/svg">
<rect width="60" height="60" rx="16" fill="#1565C0" fill-opacity="0.25"/>
<g clip-path="url(#clip0_1_140)">
<path d="M34.364 28.9818C36.2515 27.5906 37.3791 25.3712 37.3791 23.0453C37.3791 18.9772 34.0691 15.6668 30.0002 15.6668C25.9317 15.6668 22.6217 18.9768 22.6217 23.0453C22.6217 25.4033 23.7188 27.5655 25.6314 28.9785C18.1065 31.6393 16.9318 40.8203 16.7507 43.5706C16.738 43.7681 16.8072 43.962 16.9425 44.1068C17.0778 44.2511 17.2663 44.3332 17.4639 44.3332H42.5365C42.7341 44.3332 42.9234 44.2511 43.0587 44.1068C43.194 43.962 43.2633 43.7685 43.2505 43.5706C43.069 40.8256 41.8914 31.6587 34.364 28.9818Z" fill="#11519A"/>
<path d="M44.1356 29.3283C45.3813 28.4098 46.1241 26.9447 46.1241 25.4091C46.1241 22.7248 43.9393 20.54 41.2542 20.54C40.4841 20.54 39.7582 20.7244 39.1098 21.0445C39.2521 21.6895 39.328 22.3577 39.328 23.0457C39.328 24.976 38.7159 26.8482 37.6217 28.4027C41.931 31.1134 43.8007 35.8559 44.6104 39.4608H49.5281C49.6581 39.4608 49.783 39.4068 49.873 39.3119C49.9616 39.217 50.007 39.0888 49.9988 38.9584C49.88 37.1448 49.1033 31.0949 44.1356 29.3283Z" fill="#11519A"/>
<path d="M22.3639 28.4027C21.2692 26.8568 20.6712 25.0049 20.6712 23.0457C20.6712 22.3577 20.7487 21.69 20.8902 21.0445C20.2418 20.7248 19.5159 20.54 18.7458 20.54C16.0607 20.54 13.8759 22.7248 13.8759 25.4091C13.8759 26.9661 14.5993 28.3937 15.8623 29.3258C10.8959 31.0821 10.12 37.1424 10.0008 38.9576C9.99216 39.0879 10.0379 39.2162 10.1275 39.3111C10.217 39.4055 10.3419 39.4596 10.4723 39.4596H15.3867C16.1947 35.8551 18.0607 31.1093 22.3639 28.4027Z" fill="#11519A"/>
</g>
<defs>
<clipPath id="clip0_1_140">
<rect width="40" height="40" fill="white" transform="translate(10 10)"/>
</clipPath>
</defs>
</svg>
