<svg width="60" height="60" viewBox="0 0 60 60" fill="none" xmlns="http://www.w3.org/2000/svg">
<rect width="60" height="60" rx="16" fill="#558B2F" fill-opacity="0.25"/>
<g clip-path="url(#clip0_1_153)">
<path d="M24.5833 28L26.6667 34.1667H33.3333L35.4167 28L30 24.1667L24.5833 28Z" fill="#4CAF50"/>
<path d="M47.9167 25.9167C46.9763 21.8682 44.6942 18.2568 41.4414 15.6697C38.1886 13.0825 34.1562 11.6717 30 11.6667C28.6241 11.6738 27.2537 11.8416 25.9167 12.1667C21.561 13.2045 17.7358 15.8004 15.1626 19.4647C12.5893 23.129 11.446 27.6083 11.9484 32.0576C12.4507 36.5069 14.5639 40.6185 17.8894 43.6168C21.2149 46.6151 25.5226 48.2928 30 48.3333C31.3707 48.3142 32.737 48.1748 34.0833 47.9167C38.8295 46.824 42.9497 43.8957 45.5422 39.7727C48.1347 35.6497 48.9884 30.6676 47.9167 25.9167ZM42.0833 38.9167L41.1667 36.1667H34.5833L32.4167 42.5L34.75 44.1667L33.3333 44.5833C32.238 44.8179 31.12 44.9297 30 44.9167C28.3865 44.9252 26.7823 44.6719 25.25 44.1667L27.5833 42.5L25.4167 36.1667H18.8333L17.9167 38.9167C16.6866 37.2598 15.8334 35.3543 15.4167 33.3333C15.1188 32.2195 14.9785 31.0694 15 29.9167L17.3333 31.5833L22.5833 27.5833L20.6667 21.25H17.8333C19.7432 18.6523 22.4273 16.7268 25.5 15.75L24.5833 18.4167L30 22.25L35.4167 18.4167L34.5 15.6667C37.6067 16.6655 40.3188 18.6195 42.25 21.25H39.3333L37.4167 27.5833L42.6667 31.5833L45 29.8333C44.9902 33.0898 43.9712 36.2632 42.0833 38.9167Z" fill="#4CAF50"/>
</g>
<defs>
<clipPath id="clip0_1_153">
<rect width="40" height="40" fill="white" transform="translate(10 10)"/>
</clipPath>
</defs>
</svg>
