<svg width="60" height="60" viewBox="0 0 60 60" fill="none" xmlns="http://www.w3.org/2000/svg">
<rect width="60" height="60" rx="16" fill="#FF5252" fill-opacity="0.25"/>
<path d="M38.3333 31.6667C36.1861 31.6643 34.0966 30.9708 32.374 29.6888C30.6514 28.4068 29.3872 26.6043 28.7685 24.5481C28.1498 22.4919 28.2093 20.2912 28.9384 18.2714C29.6674 16.2517 31.0273 14.5203 32.8167 13.3333H16.6667C15.7826 13.3333 14.9348 13.6845 14.3096 14.3096C13.6845 14.9348 13.3333 15.7826 13.3333 16.6667V43.3333C13.3333 44.2174 13.6845 45.0652 14.3096 45.6904C14.9348 46.3155 15.7826 46.6667 16.6667 46.6667H38.3333C39.2174 46.6667 40.0652 46.3155 40.6904 45.6904C41.3155 45.0652 41.6667 44.2174 41.6667 43.3333V31.0833C40.5968 31.4657 39.4695 31.663 38.3333 31.6667Z" fill="#FF5252"/>
<path d="M33.3333 40H20C19.558 40 19.1341 39.8244 18.8215 39.5118C18.5089 39.1993 18.3333 38.7754 18.3333 38.3333C18.3333 37.8913 18.5089 37.4674 18.8215 37.1548C19.1341 36.8423 19.558 36.6667 20 36.6667H33.3333C33.7754 36.6667 34.1993 36.8423 34.5118 37.1548C34.8244 37.4674 35 37.8913 35 38.3333C35 38.7754 34.8244 39.1993 34.5118 39.5118C34.1993 39.8244 33.7754 40 33.3333 40ZM26.6667 33.3333H20C19.558 33.3333 19.1341 33.1577 18.8215 32.8452C18.5089 32.5326 18.3333 32.1087 18.3333 31.6667C18.3333 31.2246 18.5089 30.8007 18.8215 30.4882C19.1341 30.1756 19.558 30 20 30H26.6667C27.1087 30 27.5326 30.1756 27.8452 30.4882C28.1577 30.8007 28.3333 31.2246 28.3333 31.6667C28.3333 32.1087 28.1577 32.5326 27.8452 32.8452C27.5326 33.1577 27.1087 33.3333 26.6667 33.3333ZM35 28.3333C34.7807 28.3346 34.5632 28.2926 34.3602 28.2096C34.1571 28.1267 33.9724 28.0045 33.8167 27.85C33.6605 27.6951 33.5365 27.5107 33.4518 27.3076C33.3672 27.1045 33.3237 26.8867 33.3237 26.6667C33.3237 26.4466 33.3672 26.2288 33.4518 26.0257C33.5365 25.8226 33.6605 25.6383 33.8167 25.4833L43.8167 15.4833C44.1305 15.1695 44.5562 14.9932 45 14.9932C45.4438 14.9932 45.8695 15.1695 46.1833 15.4833C46.4972 15.7972 46.6735 16.2228 46.6735 16.6667C46.6735 17.1105 46.4972 17.5362 46.1833 17.85L36.1833 27.85C36.0276 28.0045 35.8429 28.1267 35.6398 28.2096C35.4368 28.2926 35.2193 28.3346 35 28.3333ZM44.1667 23.3333C43.6722 23.3333 43.1889 23.48 42.7777 23.7547C42.3666 24.0294 42.0462 24.4198 41.857 24.8766C41.6678 25.3334 41.6182 25.8361 41.7147 26.3211C41.8112 26.806 42.0493 27.2515 42.3989 27.6011C42.7485 27.9507 43.194 28.1888 43.6789 28.2853C44.1639 28.3818 44.6666 28.3323 45.1234 28.143C45.5802 27.9538 45.9706 27.6334 46.2453 27.2223C46.52 26.8111 46.6667 26.3278 46.6667 25.8333C46.6667 25.1703 46.4033 24.5344 45.9344 24.0656C45.4656 23.5967 44.8297 23.3333 44.1667 23.3333ZM35.8333 15C35.3389 15 34.8555 15.1466 34.4444 15.4213C34.0333 15.696 33.7129 16.0865 33.5236 16.5433C33.3344 17.0001 33.2849 17.5028 33.3814 17.9877C33.4778 18.4727 33.7159 18.9181 34.0656 19.2678C34.4152 19.6174 34.8607 19.8555 35.3456 19.952C35.8306 20.0484 36.3332 19.9989 36.79 19.8097C37.2469 19.6205 37.6373 19.3 37.912 18.8889C38.1867 18.4778 38.3333 17.9945 38.3333 17.5C38.3333 16.837 38.0699 16.2011 37.6011 15.7322C37.1323 15.2634 36.4964 15 35.8333 15Z" fill="white"/>
</svg>
