<svg width="60" height="60" viewBox="0 0 60 60" fill="none" xmlns="http://www.w3.org/2000/svg">
<rect width="60" height="60" rx="16" fill="#095CAF" fill-opacity="0.25"/>
<path fill-rule="evenodd" clip-rule="evenodd" d="M21.016 14.932L18.712 20H15C14.2044 20 13.4413 20.3161 12.8787 20.8787C12.3161 21.4413 12 22.2044 12 23V26.764L13.006 27.266C18.2825 29.9042 24.1007 31.2777 30 31.2777C35.8993 31.2777 41.7175 29.9042 46.994 27.266L48 26.764V23C48 22.2044 47.6839 21.4413 47.1213 20.8787C46.5587 20.3161 45.7956 20 45 20H41.288L38.984 14.932C38.5869 14.0578 37.9464 13.3164 37.1392 12.7965C36.332 12.2766 35.3922 12.0001 34.432 12H25.568C24.6078 12.0001 23.668 12.2766 22.8608 12.7965C22.0536 13.3164 21.4131 14.0578 21.016 14.932ZM25.568 16C25.3761 16.0001 25.1882 16.0553 25.0269 16.1592C24.8655 16.2632 24.7375 16.4113 24.658 16.586L23.106 20H36.894L35.342 16.586C35.2625 16.4113 35.1345 16.2632 34.9731 16.1592C34.8118 16.0553 34.6239 16.0001 34.432 16H25.568Z" fill="#095CAF"/>
<path d="M48 31.226C42.9841 33.6064 37.5458 34.9681 32 35.232V38C32 38.5304 31.7893 39.0391 31.4142 39.4142C31.0391 39.7893 30.5304 40 30 40C29.4696 40 28.9609 39.7893 28.5858 39.4142C28.2107 39.0391 28 38.5304 28 38V35.232C22.52 34.97 17.08 33.636 12 31.226V45C12 45.7956 12.3161 46.5587 12.8787 47.1213C13.4413 47.6839 14.2044 48 15 48H45C45.7956 48 46.5587 47.6839 47.1213 47.1213C47.6839 46.5587 48 45.7956 48 45V31.226Z" fill="#095CAF"/>
</svg>
